<?xml version="1.0" encoding="UTF-8"?>
<svg width="283px" height="80px" viewBox="0 0 283 80" version="1.1" xmlns="http://www.w3.org/2000/svg" xmlns:xlink="http://www.w3.org/1999/xlink">
    <!-- Generator: Sketch 61 (89581) - https://sketch.com -->
    <title>Group</title>
    <desc>Created with Sketch.</desc>
    <g id="Page-1" stroke="none" stroke-width="1" fill="none" fill-rule="evenodd">
        <g id="Artboard" transform="translate(-155.000000, -245.000000)" fill-rule="nonzero">
            <g id="Group" transform="translate(155.395892, 245.489746)">
                <path d="M82.2283011,55.3989507 C84.8624063,55.3989507 87.0639502,54.5209156 88.8329326,52.7648454 C90.6019151,51.0087752 91.4864063,48.7103893 91.4864063,45.8696875 C91.4864063,43.0806349 90.6083712,40.7499682 88.8523011,38.8776875 C87.0962309,37.0054068 84.9011432,36.0692664 82.2670379,36.0692664 C79.5812835,36.0692664 77.4120204,37.0893366 75.7592484,39.129477 L75.7592484,39.129477 L75.7205116,39.129477 L75.7205116,26.6562138 L72.5828274,26.6562138 L72.5828274,55.1665296 L75.5655642,55.1665296 L75.5655642,52.1837928 L75.6430379,52.1837928 C77.2441607,54.3272314 79.4392484,55.3989507 82.2283011,55.3989507 Z M81.9184063,52.5324243 C80.1881607,52.5324243 78.7032484,51.9061787 77.4636695,50.6536875 C76.2240905,49.4011963 75.6043011,47.8065296 75.6043011,45.8696875 C75.6043011,43.9328454 76.2047221,42.2994419 77.4055642,40.969477 C78.6064063,39.6395121 80.0977748,38.9745296 81.8796695,38.9745296 C83.7132133,38.9745296 85.2368625,39.6072314 86.4506169,40.8726349 C87.6643712,42.1380384 88.2712484,43.8037226 88.2712484,45.8696875 C88.2712484,47.8065296 87.6837397,49.4011963 86.5087221,50.6536875 C85.3337046,51.9061787 83.8035993,52.5324243 81.9184063,52.5324243 Z M104.501985,55.3989507 C107.75588,55.3989507 110.299599,54.2239331 112.133143,51.873898 L112.133143,51.873898 L109.925143,49.9757928 C108.582266,51.6802138 106.813284,52.5324243 104.618196,52.5324243 C102.913775,52.5324243 101.486968,52.0030208 100.337775,50.9442138 C99.1885818,49.8854068 98.510687,48.4779682 98.3040905,46.721898 L98.3040905,46.721898 L112.830406,46.721898 L112.869143,46.2570559 C112.894968,45.9213366 112.90788,45.6501787 112.90788,45.4435822 C112.90788,42.7061787 112.100862,40.4594419 110.486827,38.7033717 C108.872792,36.9473015 106.761634,36.0692664 104.153354,36.0692664 C101.570898,36.0692664 99.4210028,36.9795822 97.7036695,38.8002138 C95.9863362,40.6208454 95.1276695,42.9385998 95.1276695,45.753477 C95.1276695,48.5941787 96.0121607,50.9119331 97.7811432,52.7067401 C99.5501256,54.5015471 101.790406,55.3989507 104.501985,55.3989507 Z M109.808933,44.1265296 L98.4203011,44.1265296 C98.7043712,42.5254068 99.382266,41.2664594 100.453985,40.3496875 C101.525705,39.4329156 102.810477,38.9745296 104.308301,38.9745296 C105.806126,38.9745296 107.032792,39.4393717 107.988301,40.3690559 C108.94381,41.2987401 109.550687,42.5512314 109.808933,44.1265296 L109.808933,44.1265296 Z M121.081354,55.1665296 L121.081354,26.6562138 L117.943669,26.6562138 L117.943669,55.1665296 L121.081354,55.1665296 Z M131.269143,55.1665296 L131.269143,39.0132664 L136.614827,39.0132664 L136.614827,36.3016875 L131.269143,36.3016875 L131.269143,32.7766349 C131.269143,30.4782489 132.134266,29.3290559 133.864512,29.3290559 C134.82002,29.3290559 135.917564,29.6518629 137.157143,30.297477 L137.157143,30.297477 L137.854406,27.585898 C136.511529,26.7853366 135.039529,26.3850559 133.438406,26.3850559 C131.75981,26.3850559 130.462126,26.9015471 129.545354,27.9345296 C128.628582,28.9675121 128.170196,30.4911612 128.170196,32.505477 L128.170196,32.505477 L128.170196,36.3016875 L125.845985,36.3016875 L125.845985,39.0132664 L128.170196,39.0132664 L128.170196,55.1665296 L131.269143,55.1665296 Z M145.330617,55.3989507 C147.732301,55.3989507 149.746617,54.5596524 151.373564,52.8810559 L151.373564,52.8810559 L151.451038,52.8810559 L151.567248,55.1665296 L154.511248,55.1665296 L154.511248,43.9715822 C154.511248,38.7033717 152.135389,36.0692664 147.383669,36.0692664 C144.775389,36.0692664 142.464091,36.6632314 140.449775,37.8511612 L140.449775,37.8511612 L141.689354,40.3690559 C143.419599,39.4393717 145.240231,38.9745296 147.151248,38.9745296 C149.862827,38.9745296 151.270266,40.5627401 151.373564,43.7391612 L151.373564,43.7391612 L146.221564,43.7391612 C143.81988,43.7649857 142.012161,44.2943893 140.798406,45.3273717 C139.584652,46.3603542 138.977775,47.7936173 138.977775,49.6271612 C138.977775,51.3315822 139.520091,52.7196524 140.604722,53.7913717 C141.689354,54.863091 143.264652,55.3989507 145.330617,55.3989507 Z M145.950406,52.5324243 C144.710827,52.5324243 143.768231,52.2483542 143.122617,51.6802138 C142.477003,51.1120735 142.154196,50.3889857 142.154196,49.5109507 C142.154196,47.4449857 143.613284,46.4120033 146.531459,46.4120033 L146.531459,46.4120033 L151.373564,46.3732664 L151.373564,48.8136875 C151.373564,49.7175471 150.850617,50.5633015 149.804722,51.3509507 C148.758827,52.1385998 147.474055,52.5324243 145.950406,52.5324243 Z M165.744933,55.3989507 C167.914196,55.3989507 169.57988,54.8889156 170.741985,53.8688454 C171.904091,52.8487752 172.485143,51.5640033 172.485143,50.0145296 C172.485143,49.6529857 172.459319,49.3108103 172.407669,48.9880033 C172.35602,48.6651963 172.291459,48.3811261 172.213985,48.1357928 C172.136512,47.8904594 172.000933,47.63867 171.807248,47.3804243 C171.613564,47.1221787 171.458617,46.9155822 171.342406,46.7606349 C171.226196,46.6056875 171.006687,46.4249156 170.68388,46.2183191 C170.361073,46.0117226 170.122196,45.8632314 169.967248,45.7728454 C169.812301,45.6824594 169.515319,45.5404243 169.076301,45.3467401 C168.637284,45.1530559 168.327389,45.017477 168.146617,44.9400033 C167.965845,44.8625296 167.597845,44.7204945 167.042617,44.513898 C166.487389,44.3073015 166.106477,44.1652664 165.89988,44.0877928 C164.686126,43.6229507 163.788722,43.1839331 163.207669,42.7707401 C162.626617,42.3575471 162.336091,41.8152314 162.336091,41.1437928 C162.336091,40.4981787 162.633073,39.9687752 163.227038,39.5555822 C163.821003,39.1423893 164.492441,38.9357928 165.241354,38.9357928 C167.074898,38.9357928 168.740582,39.5814068 170.238406,40.8726349 L170.238406,40.8726349 L171.865354,38.393477 C169.954336,36.8440033 167.797985,36.0692664 165.396301,36.0692664 C163.588582,36.0692664 162.097213,36.553477 160.922196,37.521898 C159.747178,38.4903191 159.159669,39.6976173 159.159669,41.1437928 C159.159669,42.719091 159.64388,43.9199331 160.612301,44.7463191 C161.580722,45.572705 162.981705,46.308705 164.815248,46.9543191 C164.866898,46.9801436 164.944371,47.0059682 165.047669,47.0317928 C166.622968,47.5741086 167.726968,48.0324945 168.359669,48.4069507 C168.992371,48.7814068 169.308722,49.3301787 169.308722,50.0532664 C169.308722,50.7505296 168.985915,51.3444945 168.340301,51.8351612 C167.694687,52.3258279 166.829564,52.5711612 165.744933,52.5711612 C163.52402,52.5711612 161.600091,51.8222489 159.973143,50.3244243 L159.973143,50.3244243 L158.346196,52.6873717 C160.360512,54.495091 162.826757,55.3989507 165.744933,55.3989507 Z M182.401775,55.3989507 C184.054547,55.3989507 185.578196,55.0115822 186.972722,54.2368454 L186.972722,54.2368454 L186.120512,51.4865296 C184.984231,52.1321436 183.925424,52.4549507 182.944091,52.4549507 C182.09188,52.4549507 181.491459,52.1837928 181.142827,51.641477 C180.794196,51.0991612 180.61988,50.2469507 180.61988,49.0848454 L180.61988,49.0848454 L180.61988,39.0132664 L186.895248,39.0132664 L186.895248,36.3016875 L180.61988,36.3016875 L180.61988,29.5227401 L177.482196,29.8713717 L177.482196,36.3016875 L175.080512,36.3016875 L175.080512,39.0132664 L177.482196,39.0132664 L177.482196,49.5496875 C177.482196,53.4491963 179.122055,55.3989507 182.401775,55.3989507 Z M210.021143,55.3989507 C213.275038,55.3989507 215.818757,54.2239331 217.652301,51.873898 L217.652301,51.873898 L215.444301,49.9757928 C214.101424,51.6802138 212.332441,52.5324243 210.137354,52.5324243 C208.432933,52.5324243 207.006126,52.0030208 205.856933,50.9442138 C204.70774,49.8854068 204.029845,48.4779682 203.823248,46.721898 L203.823248,46.721898 L218.349564,46.721898 L218.388301,46.2570559 C218.414126,45.9213366 218.427038,45.6501787 218.427038,45.4435822 C218.427038,42.7061787 217.62002,40.4594419 216.005985,38.7033717 C214.39195,36.9473015 212.280792,36.0692664 209.672512,36.0692664 C207.090055,36.0692664 204.940161,36.9795822 203.222827,38.8002138 C201.505494,40.6208454 200.646827,42.9385998 200.646827,45.753477 C200.646827,48.5941787 201.531319,50.9119331 203.300301,52.7067401 C205.069284,54.5015471 207.309564,55.3989507 210.021143,55.3989507 Z M215.328091,44.1265296 L203.939459,44.1265296 C204.223529,42.5254068 204.901424,41.2664594 205.973143,40.3496875 C207.044862,39.4329156 208.329634,38.9745296 209.827459,38.9745296 C211.325284,38.9745296 212.55195,39.4393717 213.507459,40.3690559 C214.462968,41.2987401 215.069845,42.5512314 215.328091,44.1265296 L215.328091,44.1265296 Z M226.600512,55.1665296 L226.600512,26.6562138 L223.462827,26.6562138 L223.462827,55.1665296 L226.600512,55.1665296 Z M234.735248,32.8153717 C235.355038,32.8153717 235.884441,32.6023191 236.323459,32.1762138 C236.762477,31.7501086 236.981985,31.2271612 236.981985,30.6073717 C236.981985,30.0134068 236.762477,29.4969156 236.323459,29.057898 C235.884441,28.6188805 235.355038,28.3993717 234.735248,28.3993717 C234.089634,28.3993717 233.553775,28.6124243 233.127669,29.0385296 C232.701564,29.4646349 232.488512,29.9875822 232.488512,30.6073717 C232.488512,31.2271612 232.701564,31.7501086 233.127669,32.1762138 C233.553775,32.6023191 234.089634,32.8153717 234.735248,32.8153717 Z M236.284722,55.1665296 L236.284722,36.3016875 L233.147038,36.3016875 L233.147038,55.1665296 L236.284722,55.1665296 Z M244.341985,55.1665296 L249.416512,48.3101086 L249.493985,48.3101086 L254.607248,55.1665296 L258.171038,55.1665296 L251.27588,45.6372664 L258.093564,36.3016875 L254.413564,36.3016875 L249.493985,43.1968454 L249.416512,43.1968454 L244.458196,36.3016875 L240.778196,36.3016875 L247.634617,45.6372664 L240.778196,55.1665296 L244.341985,55.1665296 Z M264.175248,32.8153717 C264.795038,32.8153717 265.324441,32.6023191 265.763459,32.1762138 C266.202477,31.7501086 266.421985,31.2271612 266.421985,30.6073717 C266.421985,30.0134068 266.202477,29.4969156 265.763459,29.057898 C265.324441,28.6188805 264.795038,28.3993717 264.175248,28.3993717 C263.529634,28.3993717 262.993775,28.6124243 262.567669,29.0385296 C262.141564,29.4646349 261.928512,29.9875822 261.928512,30.6073717 C261.928512,31.2271612 262.141564,31.7501086 262.567669,32.1762138 C262.993775,32.6023191 263.529634,32.8153717 264.175248,32.8153717 Z M265.724722,55.1665296 L265.724722,36.3016875 L262.587038,36.3016875 L262.587038,55.1665296 L265.724722,55.1665296 Z M275.137775,55.1665296 L275.137775,46.0633717 C275.137775,44.1265296 275.654266,42.5512314 276.687248,41.337477 C277.720231,40.1237226 279.114757,39.5168454 280.870827,39.5168454 C281.129073,39.5168454 281.542266,39.54267 282.110406,39.5943191 L282.110406,39.5943191 L282.110406,36.1080033 C281.981284,36.0821787 281.723038,36.0692664 281.335669,36.0692664 C278.701564,36.0692664 276.648512,37.2571963 275.176512,39.6330559 L275.176512,39.6330559 L275.137775,39.6330559 L275.137775,36.3016875 L272.000091,36.3016875 L272.000091,55.1665296 L275.137775,55.1665296 Z" id="belfastelixir" fill="#343440"></path>
                <path d="M28.1448241,0 C27.1422278,15.970004 31.0067335,27.5446029 39.7383412,34.7237966 L40.0449063,34.9724507 C53.4663701,45.7113487 56.2356958,63.7224507 43.1242649,73.5164474 C30.012834,83.3104441 -1.29061998,82.6574836 0.0412056745,54.2092928 C0.929089446,35.2438322 10.2969623,17.174068 28.1448241,0 Z M20.8211432,40.3791612 L20.7714642,40.5095929 C18.9418596,45.3499832 17.93307,50.1874702 17.7060686,55.036288 C17.6285504,56.6920994 17.7575612,57.9594904 18.0142611,58.8858358 C18.1604213,59.4132799 18.3160207,59.7312331 18.4786146,59.9465017 C18.7874903,60.3554422 19.4601897,60.7776966 20.7495889,61.1236808 C24.5879089,62.1536163 30.150023,61.1346895 32.5411282,59.3485781 C33.7788451,58.4240264 34.0785652,57.7188914 33.9440234,56.41791 C33.712927,54.183274 32.1265069,51.3862394 29.2849228,49.0161785 L28.9965843,48.7806323 C25.9227057,46.321134 23.2407196,43.5670338 20.941303,40.5386736 L20.8211432,40.3791612 Z" id="Path" fill="#59186F"></path>
            </g>
        </g>
    </g>
</svg>