<?xml version="1.0" encoding="UTF-8"?>
<svg width="195px" height="80px" viewBox="0 0 195 80" version="1.1" xmlns="http://www.w3.org/2000/svg" xmlns:xlink="http://www.w3.org/1999/xlink">
    <!-- Generator: Sketch 61 (89581) - https://sketch.com -->
    <title>Group</title>
    <desc>Created with Sketch.</desc>
    <g id="Page-1" stroke="none" stroke-width="1" fill="none" fill-rule="evenodd">
        <g id="Artboard" transform="translate(-160.000000, -384.000000)" fill-rule="nonzero">
            <g id="Group" transform="translate(160.000000, 384.000000)">
                <path d="M28.1448241,-2.84217094e-14 C27.1422278,15.970004 31.0067335,27.5446029 39.7383412,34.7237966 L40.0449063,34.9724507 C53.4663701,45.7113487 56.2356958,63.7224507 43.1242649,73.5164474 C30.012834,83.3104441 -1.29061998,82.6574836 0.0412056745,54.2092928 C0.929089446,35.2438322 10.2969623,17.174068 28.1448241,-2.84217094e-14 Z M20.8211432,40.3791612 L20.7714642,40.5095929 C18.9418596,45.3499832 17.93307,50.1874702 17.7060686,55.036288 C17.6285504,56.6920994 17.7575612,57.9594904 18.0142611,58.8858358 C18.1604213,59.4132799 18.3160207,59.7312331 18.4786146,59.9465017 C18.7874903,60.3554422 19.4601897,60.7776966 20.7495889,61.1236808 C24.5879089,62.1536163 30.150023,61.1346895 32.5411282,59.3485781 C33.7788451,58.4240264 34.0785652,57.7188914 33.9440234,56.41791 C33.712927,54.183274 32.1265069,51.3862394 29.2849228,49.0161785 L28.9965843,48.7806323 C25.9227057,46.321134 23.2407196,43.5670338 20.941303,40.5386736 L20.8211432,40.3791612 Z" id="Path" fill="#59186F"></path>
                <g id="belfast-elixir" transform="translate(75.320108, 5.494254)">
                    <path d="M11.544,29.328 C14.222,29.328 16.432,28.431 18.174,26.637 C19.916,24.843 20.787,22.49 20.787,19.578 C20.787,16.718 19.916,14.3585 18.174,12.4995 C16.432,10.6405 14.235,9.711 11.583,9.711 C9.035,9.711 7.02,10.569 5.538,12.285 L5.538,12.285 L5.499,12.285 L5.499,0.312 L1.131,0.312 L1.131,29.016 L5.304,29.016 L5.304,26.481 L5.382,26.481 C6.838,28.379 8.892,29.328 11.544,29.328 Z M10.881,25.35 C9.295,25.35 7.969,24.817 6.903,23.751 C5.837,22.685 5.304,21.307 5.304,19.617 C5.304,17.901 5.824,16.4775 6.864,15.3465 C7.904,14.2155 9.23,13.65 10.842,13.65 C12.402,13.65 13.7085,14.196 14.7615,15.288 C15.8145,16.38 16.341,17.823 16.341,19.617 C16.341,21.307 15.8275,22.685 14.8005,23.751 C13.7735,24.817 12.467,25.35 10.881,25.35 Z M33.93,29.328 C37.44,29.328 40.118,28.132 41.964,25.74 L41.964,25.74 L38.922,23.127 C37.726,24.609 36.14,25.35 34.164,25.35 C32.76,25.35 31.577,24.9665 30.615,24.1995 C29.653,23.4325 29.029,22.373 28.743,21.021 L28.743,21.021 L42.627,21.021 C42.705,20.319 42.744,19.734 42.744,19.266 C42.744,16.458 41.899,14.1635 40.209,12.3825 C38.519,10.6015 36.283,9.711 33.501,9.711 C30.823,9.711 28.6065,10.621 26.8515,12.441 C25.0965,14.261 24.219,16.614 24.219,19.5 C24.219,22.438 25.1355,24.8105 26.9685,26.6175 C28.8015,28.4245 31.122,29.328 33.93,29.328 Z M38.337,17.511 L28.821,17.511 C29.133,16.289 29.7245,15.34 30.5955,14.664 C31.4665,13.988 32.513,13.65 33.735,13.65 C34.957,13.65 35.958,14.001 36.738,14.703 C37.518,15.379 38.051,16.315 38.337,17.511 L38.337,17.511 Z M51.909,29.016 L51.909,0.312 L47.541,0.312 L47.541,29.016 L51.909,29.016 Z M62.946,29.016 L62.946,13.689 L67.626,13.689 L67.626,9.984 L62.946,9.984 L62.946,6.981 C62.946,5.005 63.622,4.017 64.974,4.017 C65.702,4.017 66.755,4.342 68.133,4.992 L68.133,4.992 L69.108,1.326 C67.756,0.442 66.17,0 64.35,0 C62.478,0 61.048,0.5525 60.06,1.6575 C59.072,2.7625 58.578,4.381 58.578,6.513 L58.578,6.513 L58.578,9.984 L56.472,9.984 L56.472,13.689 L58.578,13.689 L58.578,29.016 L62.946,29.016 Z M76.44,29.328 C78.468,29.328 80.314,28.639 81.978,27.261 L81.978,27.261 L82.056,27.261 L82.212,29.016 L86.268,29.016 L86.268,17.706 C86.268,15.054 85.6115,13.0585 84.2985,11.7195 C82.9855,10.3805 81.12,9.711 78.702,9.711 C75.972,9.711 73.541,10.296 71.409,11.466 L71.409,11.466 L73.047,14.937 C74.841,14.079 76.609,13.65 78.351,13.65 C80.509,13.65 81.692,14.768 81.9,17.004 L81.9,17.004 L77.532,17.004 C75.062,17.004 73.19,17.55 71.916,18.642 C70.642,19.734 70.005,21.281 70.005,23.283 C70.005,25.077 70.5575,26.533 71.6625,27.651 C72.7675,28.769 74.36,29.328 76.44,29.328 Z M77.376,25.35 C76.414,25.35 75.673,25.1355 75.153,24.7065 C74.633,24.2775 74.373,23.738 74.373,23.088 C74.373,21.45 75.582,20.631 78,20.631 L78,20.631 L81.939,20.631 L81.939,22.659 C81.939,23.283 81.51,23.8875 80.652,24.4725 C79.794,25.0575 78.702,25.35 77.376,25.35 Z M97.461,29.328 C99.775,29.328 101.5365,28.7885 102.7455,27.7095 C103.9545,26.6305 104.559,25.246 104.559,23.556 C104.559,21.788 103.909,20.449 102.609,19.539 C101.985,19.097 100.438,18.395 97.968,17.433 C95.966,16.679 94.965,15.912 94.965,15.132 C94.965,14.586 95.1795,14.1765 95.6085,13.9035 C96.0375,13.6305 96.512,13.494 97.032,13.494 C98.774,13.494 100.36,14.17 101.79,15.522 L101.79,15.522 L103.974,12.09 C102.024,10.504 99.788,9.711 97.266,9.711 C95.316,9.711 93.7105,10.218 92.4495,11.232 C91.1885,12.246 90.558,13.533 90.558,15.093 C90.558,16.783 91.0585,18.083 92.0595,18.993 C93.0605,19.903 94.497,20.683 96.369,21.333 C97.799,21.827 98.7805,22.2235 99.3135,22.5225 C99.8465,22.8215 100.113,23.192 100.113,23.634 C100.113,24.206 99.879,24.661 99.411,24.999 C98.943,25.337 98.293,25.506 97.461,25.506 C95.303,25.506 93.47,24.765 91.962,23.283 L91.962,23.283 L89.778,26.559 C91.858,28.405 94.419,29.328 97.461,29.328 Z M114.543,29.328 C116.389,29.328 118.001,28.951 119.379,28.197 L119.379,28.197 L118.248,24.414 C117.234,24.96 116.298,25.233 115.44,25.233 C114.79,25.233 114.322,25.0315 114.036,24.6285 C113.75,24.2255 113.607,23.543 113.607,22.581 L113.607,22.581 L113.607,13.689 L119.184,13.689 L119.184,9.984 L113.607,9.984 L113.607,3.198 L109.239,3.666 L109.239,9.984 L106.899,9.984 L106.899,13.689 L109.239,13.689 L109.239,23.01 C109.239,25.09 109.707,26.663 110.643,27.729 C111.579,28.795 112.879,29.328 114.543,29.328 Z" id="belfast" fill="#59186F"></path>
                    <path d="M9.711,69.328 C13.221,69.328 15.899,68.132 17.745,65.74 L17.745,65.74 L14.703,63.127 C13.507,64.609 11.921,65.35 9.945,65.35 C8.541,65.35 7.358,64.9665 6.396,64.1995 C5.434,63.4325 4.81,62.373 4.524,61.021 L4.524,61.021 L18.408,61.021 C18.486,60.319 18.525,59.734 18.525,59.266 C18.525,56.458 17.68,54.1635 15.99,52.3825 C14.3,50.6015 12.064,49.711 9.282,49.711 C6.604,49.711 4.3875,50.621 2.6325,52.441 C0.8775,54.261 0,56.614 0,59.5 C0,62.438 0.9165,64.8105 2.7495,66.6175 C4.5825,68.4245 6.903,69.328 9.711,69.328 Z M14.118,57.511 L4.602,57.511 C4.914,56.289 5.5055,55.34 6.3765,54.664 C7.2475,53.988 8.294,53.65 9.516,53.65 C10.738,53.65 11.739,54.001 12.519,54.703 C13.299,55.379 13.832,56.315 14.118,57.511 L14.118,57.511 Z M27.69,69.016 L27.69,40.312 L23.322,40.312 L23.322,69.016 L27.69,69.016 Z M36.114,47.176 C36.92,47.176 37.609,46.89 38.181,46.318 C38.779,45.746 39.078,45.057 39.078,44.251 C39.078,43.471 38.7855,42.795 38.2005,42.223 C37.6155,41.651 36.92,41.365 36.114,41.365 C35.308,41.365 34.619,41.651 34.047,42.223 C33.475,42.795 33.189,43.471 33.189,44.251 C33.189,45.057 33.475,45.746 34.047,46.318 C34.619,46.89 35.308,47.176 36.114,47.176 Z M38.298,69.016 L38.298,49.984 L33.93,49.984 L33.93,69.016 L38.298,69.016 Z M47.307,69.016 L51.675,63.01 L51.714,63.01 L56.043,69.016 L60.918,69.016 L54.171,59.344 L60.801,49.984 L55.77,49.984 L51.675,55.99 L51.636,55.99 L47.58,49.984 L42.51,49.984 L49.179,59.305 L42.471,69.016 L47.307,69.016 Z M67.275,47.176 C68.081,47.176 68.77,46.89 69.342,46.318 C69.94,45.746 70.239,45.057 70.239,44.251 C70.239,43.471 69.9465,42.795 69.3615,42.223 C68.7765,41.651 68.081,41.365 67.275,41.365 C66.469,41.365 65.78,41.651 65.208,42.223 C64.636,42.795 64.35,43.471 64.35,44.251 C64.35,45.057 64.636,45.746 65.208,46.318 C65.78,46.89 66.469,47.176 67.275,47.176 Z M69.459,69.016 L69.459,49.984 L65.091,49.984 L65.091,69.016 L69.459,69.016 Z M79.794,69.016 L79.794,60.007 C79.794,58.395 80.2555,57.0755 81.1785,56.0485 C82.1015,55.0215 83.369,54.508 84.981,54.508 C85.189,54.508 85.631,54.534 86.307,54.586 L86.307,54.586 L86.307,49.711 L85.761,49.711 C83.343,49.711 81.367,50.764 79.833,52.87 L79.833,52.87 L79.794,52.87 L79.794,49.984 L75.426,49.984 L75.426,69.016 L79.794,69.016 Z" id="elixir" fill="#343440"></path>
                </g>
            </g>
        </g>
    </g>
</svg>